<mxfile host="Electron" agent="Mozilla/5.0 (X11; Linux x86_64) AppleWebKit/537.36 (KHTML, like Gecko) draw.io/24.7.17 Chrome/128.0.6613.36 Electron/32.0.1 Safari/537.36" version="24.7.17">
  <diagram name="Page-1" id="ZytiXf0XuAnRMrZ5RIe9">
    <mxGraphModel dx="1083" dy="800" grid="0" gridSize="10" guides="1" tooltips="1" connect="1" arrows="1" fold="1" page="0" pageScale="1" pageWidth="850" pageHeight="1100" math="0" shadow="0">
      <root>
        <mxCell id="0" />
        <mxCell id="1" parent="0" />
        <mxCell id="EOEwD_PGpH7pbu5A_fgL-1" value="" style="endArrow=none;dashed=1;html=1;rounded=0;" edge="1" parent="1">
          <mxGeometry width="50" height="50" relative="1" as="geometry">
            <mxPoint x="-132" y="455" as="sourcePoint" />
            <mxPoint x="-132" y="-30" as="targetPoint" />
          </mxGeometry>
        </mxCell>
        <mxCell id="EOEwD_PGpH7pbu5A_fgL-2" value="&lt;b&gt;:Usuario&lt;/b&gt;" style="shape=umlLifeline;perimeter=lifelinePerimeter;whiteSpace=wrap;html=1;container=0;dropTarget=0;collapsible=0;recursiveResize=0;outlineConnect=0;portConstraint=eastwest;newEdgeStyle={&quot;edgeStyle&quot;:&quot;elbowEdgeStyle&quot;,&quot;elbow&quot;:&quot;vertical&quot;,&quot;curved&quot;:0,&quot;rounded&quot;:0};" vertex="1" parent="1">
          <mxGeometry x="300" y="-100" width="99" height="558" as="geometry" />
        </mxCell>
        <mxCell id="EOEwD_PGpH7pbu5A_fgL-71" value="" style="rounded=0;whiteSpace=wrap;html=1;fillColor=none;" vertex="1" parent="EOEwD_PGpH7pbu5A_fgL-2">
          <mxGeometry x="-530" y="301" width="701" height="229" as="geometry" />
        </mxCell>
        <mxCell id="EOEwD_PGpH7pbu5A_fgL-3" value="" style="html=1;points=[];perimeter=orthogonalPerimeter;outlineConnect=0;targetShapes=umlLifeline;portConstraint=eastwest;newEdgeStyle={&quot;edgeStyle&quot;:&quot;elbowEdgeStyle&quot;,&quot;elbow&quot;:&quot;vertical&quot;,&quot;curved&quot;:0,&quot;rounded&quot;:0};" vertex="1" parent="EOEwD_PGpH7pbu5A_fgL-2">
          <mxGeometry x="45" y="105" width="10" height="47" as="geometry" />
        </mxCell>
        <mxCell id="EOEwD_PGpH7pbu5A_fgL-82" value="" style="html=1;points=[];perimeter=orthogonalPerimeter;outlineConnect=0;targetShapes=umlLifeline;portConstraint=eastwest;newEdgeStyle={&quot;edgeStyle&quot;:&quot;elbowEdgeStyle&quot;,&quot;elbow&quot;:&quot;vertical&quot;,&quot;curved&quot;:0,&quot;rounded&quot;:0};" vertex="1" parent="EOEwD_PGpH7pbu5A_fgL-2">
          <mxGeometry x="44" y="378" width="10" height="21" as="geometry" />
        </mxCell>
        <mxCell id="EOEwD_PGpH7pbu5A_fgL-75" value="" style="endArrow=open;html=1;rounded=0;fontSize=12;startSize=8;endSize=8;curved=1;dashed=1;endFill=0;" edge="1" parent="EOEwD_PGpH7pbu5A_fgL-2">
          <mxGeometry width="50" height="50" relative="1" as="geometry">
            <mxPoint x="-125" y="506" as="sourcePoint" />
            <mxPoint x="-276" y="506" as="targetPoint" />
          </mxGeometry>
        </mxCell>
        <mxCell id="EOEwD_PGpH7pbu5A_fgL-76" value="msgErro()" style="edgeLabel;html=1;align=center;verticalAlign=middle;resizable=0;points=[];fontSize=12;" vertex="1" connectable="0" parent="EOEwD_PGpH7pbu5A_fgL-75">
          <mxGeometry x="0.1296" y="-2" relative="1" as="geometry">
            <mxPoint x="10" y="-9" as="offset" />
          </mxGeometry>
        </mxCell>
        <mxCell id="EOEwD_PGpH7pbu5A_fgL-16" value="" style="endArrow=classic;html=1;rounded=0;fontFamily=Helvetica;fontSize=12;fontColor=default;autosize=1;resizable=0;startSize=8;endSize=8;curved=1;endFill=1;" edge="1" parent="EOEwD_PGpH7pbu5A_fgL-2">
          <mxGeometry width="50" height="50" relative="1" as="geometry">
            <mxPoint x="-125" y="341" as="sourcePoint" />
            <mxPoint x="-276" y="341" as="targetPoint" />
          </mxGeometry>
        </mxCell>
        <mxCell id="EOEwD_PGpH7pbu5A_fgL-17" value="solicitaNovaSenha()" style="edgeLabel;html=1;align=center;verticalAlign=middle;resizable=0;points=[];fontSize=12;fontFamily=Helvetica;fontColor=default;autosize=1;fillColor=none;gradientColor=none;" vertex="1" connectable="0" parent="EOEwD_PGpH7pbu5A_fgL-16">
          <mxGeometry x="0.0749" y="2" width="130" height="30" relative="1" as="geometry">
            <mxPoint x="-61" y="-28" as="offset" />
          </mxGeometry>
        </mxCell>
        <mxCell id="EOEwD_PGpH7pbu5A_fgL-18" value="" style="endArrow=open;html=1;rounded=0;fontSize=12;startSize=8;endSize=8;curved=1;dashed=1;endFill=0;" edge="1" parent="EOEwD_PGpH7pbu5A_fgL-2">
          <mxGeometry width="50" height="50" relative="1" as="geometry">
            <mxPoint x="-277" y="379" as="sourcePoint" />
            <mxPoint x="-126" y="379" as="targetPoint" />
          </mxGeometry>
        </mxCell>
        <mxCell id="EOEwD_PGpH7pbu5A_fgL-19" value="nova senha" style="edgeLabel;html=1;align=center;verticalAlign=middle;resizable=0;points=[];fontSize=12;" vertex="1" connectable="0" parent="EOEwD_PGpH7pbu5A_fgL-18">
          <mxGeometry x="-0.0785" relative="1" as="geometry">
            <mxPoint y="-9" as="offset" />
          </mxGeometry>
        </mxCell>
        <mxCell id="EOEwD_PGpH7pbu5A_fgL-20" value="" style="endArrow=classic;html=1;rounded=0;fontSize=12;startSize=8;endSize=8;curved=1;" edge="1" parent="EOEwD_PGpH7pbu5A_fgL-2">
          <mxGeometry width="50" height="50" relative="1" as="geometry">
            <mxPoint x="-115" y="385" as="sourcePoint" />
            <mxPoint x="45" y="385" as="targetPoint" />
          </mxGeometry>
        </mxCell>
        <mxCell id="EOEwD_PGpH7pbu5A_fgL-21" value="setSenha()" style="edgeLabel;html=1;align=center;verticalAlign=middle;resizable=0;points=[];fontSize=12;" vertex="1" connectable="0" parent="EOEwD_PGpH7pbu5A_fgL-20">
          <mxGeometry x="-0.2089" y="2" relative="1" as="geometry">
            <mxPoint x="8" y="-8" as="offset" />
          </mxGeometry>
        </mxCell>
        <mxCell id="EOEwD_PGpH7pbu5A_fgL-22" value="" style="endArrow=open;html=1;rounded=0;fontSize=12;startSize=8;endSize=8;curved=1;dashed=1;endFill=0;" edge="1" parent="EOEwD_PGpH7pbu5A_fgL-2">
          <mxGeometry width="50" height="50" relative="1" as="geometry">
            <mxPoint x="-125" y="430" as="sourcePoint" />
            <mxPoint x="-276" y="430" as="targetPoint" />
          </mxGeometry>
        </mxCell>
        <mxCell id="EOEwD_PGpH7pbu5A_fgL-23" value="msgConfirmação()" style="edgeLabel;html=1;align=center;verticalAlign=middle;resizable=0;points=[];fontSize=12;" vertex="1" connectable="0" parent="EOEwD_PGpH7pbu5A_fgL-22">
          <mxGeometry x="0.1296" y="-2" relative="1" as="geometry">
            <mxPoint x="13" y="-8" as="offset" />
          </mxGeometry>
        </mxCell>
        <mxCell id="EOEwD_PGpH7pbu5A_fgL-81" value="verifica resultado da autenticação" style="verticalLabelPosition=middle;verticalAlign=middle;html=1;shape=card;whiteSpace=wrap;size=5;arcSize=12;labelPosition=center;align=center;flipH=1;flipV=1;fontSize=8;" vertex="1" parent="EOEwD_PGpH7pbu5A_fgL-2">
          <mxGeometry x="-530" y="301" width="72" height="20" as="geometry" />
        </mxCell>
        <mxCell id="EOEwD_PGpH7pbu5A_fgL-92" value="" style="endArrow=classic;html=1;rounded=0;fontSize=12;startSize=8;endSize=8;curved=1;" edge="1" parent="EOEwD_PGpH7pbu5A_fgL-2">
          <mxGeometry width="50" height="50" relative="1" as="geometry">
            <mxPoint x="-288" y="350" as="sourcePoint" />
            <mxPoint x="-428" y="350" as="targetPoint" />
          </mxGeometry>
        </mxCell>
        <mxCell id="EOEwD_PGpH7pbu5A_fgL-94" value="&lt;font style=&quot;font-size: 10px;&quot;&gt;solicita que usuário insira&lt;/font&gt;&lt;div&gt;&lt;font style=&quot;font-size: 10px;&quot;&gt;nova senha&lt;/font&gt;&lt;/div&gt;" style="edgeLabel;html=1;align=center;verticalAlign=middle;resizable=0;points=[];fontSize=12;" vertex="1" connectable="0" parent="EOEwD_PGpH7pbu5A_fgL-92">
          <mxGeometry x="-0.0257" y="1" relative="1" as="geometry">
            <mxPoint x="-1" y="-19" as="offset" />
          </mxGeometry>
        </mxCell>
        <mxCell id="EOEwD_PGpH7pbu5A_fgL-72" value="" style="endArrow=none;dashed=1;html=1;rounded=0;entryX=0.999;entryY=0.703;entryDx=0;entryDy=0;entryPerimeter=0;exitX=0;exitY=0.704;exitDx=0;exitDy=0;exitPerimeter=0;" edge="1" parent="EOEwD_PGpH7pbu5A_fgL-2" source="EOEwD_PGpH7pbu5A_fgL-71" target="EOEwD_PGpH7pbu5A_fgL-71">
          <mxGeometry width="50" height="50" relative="1" as="geometry">
            <mxPoint x="-365" y="413" as="sourcePoint" />
            <mxPoint x="173.00000000000017" y="413.00000000000006" as="targetPoint" />
          </mxGeometry>
        </mxCell>
        <mxCell id="EOEwD_PGpH7pbu5A_fgL-4" value="&lt;b&gt;:SistemaDeAutenticação&lt;/b&gt;" style="shape=umlLifeline;perimeter=lifelinePerimeter;whiteSpace=wrap;html=1;container=0;dropTarget=0;collapsible=0;recursiveResize=0;outlineConnect=0;portConstraint=eastwest;newEdgeStyle={&quot;edgeStyle&quot;:&quot;elbowEdgeStyle&quot;,&quot;elbow&quot;:&quot;vertical&quot;,&quot;curved&quot;:0,&quot;rounded&quot;:0};" vertex="1" parent="1">
          <mxGeometry x="106" y="-100" width="150" height="555" as="geometry" />
        </mxCell>
        <mxCell id="EOEwD_PGpH7pbu5A_fgL-5" value="" style="html=1;points=[];perimeter=orthogonalPerimeter;outlineConnect=0;targetShapes=umlLifeline;portConstraint=eastwest;newEdgeStyle={&quot;edgeStyle&quot;:&quot;elbowEdgeStyle&quot;,&quot;elbow&quot;:&quot;vertical&quot;,&quot;curved&quot;:0,&quot;rounded&quot;:0};" vertex="1" parent="EOEwD_PGpH7pbu5A_fgL-4">
          <mxGeometry x="70" y="102" width="10" height="328" as="geometry" />
        </mxCell>
        <mxCell id="EOEwD_PGpH7pbu5A_fgL-83" value="" style="html=1;points=[];perimeter=orthogonalPerimeter;outlineConnect=0;targetShapes=umlLifeline;portConstraint=eastwest;newEdgeStyle={&quot;edgeStyle&quot;:&quot;elbowEdgeStyle&quot;,&quot;elbow&quot;:&quot;vertical&quot;,&quot;curved&quot;:0,&quot;rounded&quot;:0};" vertex="1" parent="EOEwD_PGpH7pbu5A_fgL-4">
          <mxGeometry x="70" y="495" width="10" height="11" as="geometry" />
        </mxCell>
        <mxCell id="EOEwD_PGpH7pbu5A_fgL-6" value="Usuário" style="shape=umlActor;verticalLabelPosition=bottom;verticalAlign=top;html=1;outlineConnect=0;" vertex="1" parent="1">
          <mxGeometry x="-147" y="-109" width="30" height="60" as="geometry" />
        </mxCell>
        <mxCell id="EOEwD_PGpH7pbu5A_fgL-7" value="" style="rounded=0;whiteSpace=wrap;html=1;" vertex="1" parent="1">
          <mxGeometry x="-137" y="-20" width="10" height="461" as="geometry" />
        </mxCell>
        <mxCell id="EOEwD_PGpH7pbu5A_fgL-8" value="" style="endArrow=classic;html=1;rounded=0;fontFamily=Helvetica;fontSize=12;fontColor=default;autosize=1;resizable=0;startSize=8;endSize=8;curved=1;" edge="1" parent="1" target="EOEwD_PGpH7pbu5A_fgL-5">
          <mxGeometry width="50" height="50" relative="1" as="geometry">
            <mxPoint x="25" y="2" as="sourcePoint" />
            <mxPoint x="75" y="-48" as="targetPoint" />
          </mxGeometry>
        </mxCell>
        <mxCell id="EOEwD_PGpH7pbu5A_fgL-9" value="recuperarSenha(email)" style="edgeLabel;html=1;align=center;verticalAlign=middle;resizable=0;points=[];fontSize=10;fontFamily=Helvetica;fontColor=default;autosize=1;fillColor=none;gradientColor=none;" vertex="1" connectable="0" parent="EOEwD_PGpH7pbu5A_fgL-8">
          <mxGeometry x="0.0451" width="120" height="24" relative="1" as="geometry">
            <mxPoint x="-66" y="-23" as="offset" />
          </mxGeometry>
        </mxCell>
        <mxCell id="EOEwD_PGpH7pbu5A_fgL-10" value="" style="endArrow=classic;html=1;rounded=0;fontFamily=Helvetica;fontSize=12;fontColor=default;autosize=1;resizable=0;startSize=8;endSize=8;curved=1;" edge="1" parent="1" target="EOEwD_PGpH7pbu5A_fgL-3">
          <mxGeometry width="50" height="50" relative="1" as="geometry">
            <mxPoint x="186" y="17" as="sourcePoint" />
            <mxPoint x="204" y="-45" as="targetPoint" />
          </mxGeometry>
        </mxCell>
        <mxCell id="EOEwD_PGpH7pbu5A_fgL-11" value="getEmail(); getUsuario()" style="edgeLabel;html=1;align=center;verticalAlign=middle;resizable=0;points=[];fontSize=10;fontFamily=Helvetica;fontColor=default;autosize=1;fillColor=none;gradientColor=none;" vertex="1" connectable="0" parent="EOEwD_PGpH7pbu5A_fgL-10">
          <mxGeometry x="-0.032" y="1" width="124" height="24" relative="1" as="geometry">
            <mxPoint x="-63" y="-22" as="offset" />
          </mxGeometry>
        </mxCell>
        <mxCell id="EOEwD_PGpH7pbu5A_fgL-12" value="" style="endArrow=open;html=1;rounded=0;fontFamily=Helvetica;fontSize=12;fontColor=default;autosize=1;resizable=0;startSize=8;endSize=8;curved=1;dashed=1;endFill=0;" edge="1" parent="1">
          <mxGeometry width="50" height="50" relative="1" as="geometry">
            <mxPoint x="345" y="44" as="sourcePoint" />
            <mxPoint x="186" y="44" as="targetPoint" />
          </mxGeometry>
        </mxCell>
        <mxCell id="EOEwD_PGpH7pbu5A_fgL-13" value="email; Usuario" style="edgeLabel;html=1;align=center;verticalAlign=middle;resizable=0;points=[];fontSize=10;fontFamily=Helvetica;fontColor=default;autosize=1;fillColor=none;gradientColor=none;" vertex="1" connectable="0" parent="1">
          <mxGeometry x="227.00285714285712" y="24.000000000000114" width="82" height="24" as="geometry" />
        </mxCell>
        <mxCell id="EOEwD_PGpH7pbu5A_fgL-14" value="" style="endArrow=classic;html=1;rounded=0;fontFamily=Helvetica;fontSize=12;fontColor=default;autosize=1;resizable=0;startSize=8;endSize=8;curved=1;" edge="1" parent="1">
          <mxGeometry width="50" height="50" relative="1" as="geometry">
            <mxPoint x="187" y="59" as="sourcePoint" />
            <mxPoint x="186" y="84" as="targetPoint" />
            <Array as="points">
              <mxPoint x="212" y="58" />
              <mxPoint x="220" y="84" />
            </Array>
          </mxGeometry>
        </mxCell>
        <mxCell id="EOEwD_PGpH7pbu5A_fgL-15" value="validaEmail()" style="edgeLabel;html=1;align=center;verticalAlign=middle;resizable=0;points=[];fontSize=10;fontFamily=Helvetica;fontColor=default;autosize=1;fillColor=none;gradientColor=none;" vertex="1" connectable="0" parent="EOEwD_PGpH7pbu5A_fgL-14">
          <mxGeometry x="-0.099" width="76" height="24" relative="1" as="geometry">
            <mxPoint x="-1" y="-10" as="offset" />
          </mxGeometry>
        </mxCell>
        <mxCell id="EOEwD_PGpH7pbu5A_fgL-57" value="&lt;b&gt;:APIBiometria&lt;/b&gt;" style="shape=umlLifeline;perimeter=lifelinePerimeter;whiteSpace=wrap;html=1;container=0;dropTarget=0;collapsible=0;recursiveResize=0;outlineConnect=0;portConstraint=eastwest;newEdgeStyle={&quot;edgeStyle&quot;:&quot;elbowEdgeStyle&quot;,&quot;elbow&quot;:&quot;vertical&quot;,&quot;curved&quot;:0,&quot;rounded&quot;:0};" vertex="1" parent="1">
          <mxGeometry x="444" y="-98" width="100" height="557" as="geometry" />
        </mxCell>
        <mxCell id="EOEwD_PGpH7pbu5A_fgL-58" value="" style="html=1;points=[];perimeter=orthogonalPerimeter;outlineConnect=0;targetShapes=umlLifeline;portConstraint=eastwest;newEdgeStyle={&quot;edgeStyle&quot;:&quot;elbowEdgeStyle&quot;,&quot;elbow&quot;:&quot;vertical&quot;,&quot;curved&quot;:0,&quot;rounded&quot;:0};" vertex="1" parent="EOEwD_PGpH7pbu5A_fgL-57">
          <mxGeometry x="45" y="238.5" width="10" height="32" as="geometry" />
        </mxCell>
        <mxCell id="EOEwD_PGpH7pbu5A_fgL-59" value="" style="endArrow=classic;html=1;rounded=0;fontFamily=Helvetica;fontSize=12;fontColor=default;autosize=1;resizable=0;startSize=8;endSize=8;curved=1;" edge="1" parent="1">
          <mxGeometry width="50" height="50" relative="1" as="geometry">
            <mxPoint x="186" y="141.8" as="sourcePoint" />
            <mxPoint x="488" y="141.8" as="targetPoint" />
          </mxGeometry>
        </mxCell>
        <mxCell id="EOEwD_PGpH7pbu5A_fgL-60" value="verificarBiometria(Usuario)" style="edgeLabel;html=1;align=center;verticalAlign=middle;resizable=0;points=[];fontSize=10;fontFamily=Helvetica;fontColor=default;autosize=1;fillColor=none;gradientColor=none;" vertex="1" connectable="0" parent="EOEwD_PGpH7pbu5A_fgL-59">
          <mxGeometry x="-0.5818" y="-1" width="136" height="24" relative="1" as="geometry">
            <mxPoint x="-52" y="-21" as="offset" />
          </mxGeometry>
        </mxCell>
        <mxCell id="EOEwD_PGpH7pbu5A_fgL-61" value="" style="endArrow=open;html=1;rounded=0;fontFamily=Helvetica;fontSize=12;fontColor=default;autosize=1;resizable=0;startSize=8;endSize=8;curved=1;dashed=1;endFill=0;" edge="1" parent="1">
          <mxGeometry width="50" height="50" relative="1" as="geometry">
            <mxPoint x="489" y="173" as="sourcePoint" />
            <mxPoint x="187" y="173" as="targetPoint" />
          </mxGeometry>
        </mxCell>
        <mxCell id="EOEwD_PGpH7pbu5A_fgL-62" value="success - boolean" style="edgeLabel;html=1;align=center;verticalAlign=middle;resizable=0;points=[];fontSize=10;fontFamily=Helvetica;fontColor=default;autosize=1;fillColor=none;gradientColor=none;" vertex="1" connectable="0" parent="1">
          <mxGeometry x="373.00333333333344" y="153" width="99" height="24" as="geometry" />
        </mxCell>
        <mxCell id="EOEwD_PGpH7pbu5A_fgL-63" value="" style="endArrow=none;dashed=1;html=1;rounded=0;" edge="1" parent="1" source="EOEwD_PGpH7pbu5A_fgL-70">
          <mxGeometry width="50" height="50" relative="1" as="geometry">
            <mxPoint x="646" y="243" as="sourcePoint" />
            <mxPoint x="646" y="7" as="targetPoint" />
          </mxGeometry>
        </mxCell>
        <mxCell id="EOEwD_PGpH7pbu5A_fgL-64" value="API&lt;div&gt;Reconhecimento&lt;/div&gt;&lt;div&gt;Facial (Azure)&lt;/div&gt;" style="shape=umlActor;verticalLabelPosition=bottom;verticalAlign=top;html=1;outlineConnect=0;" vertex="1" parent="1">
          <mxGeometry x="631" y="-113" width="30" height="60" as="geometry" />
        </mxCell>
        <mxCell id="EOEwD_PGpH7pbu5A_fgL-65" value="" style="endArrow=classic;html=1;rounded=0;" edge="1" parent="1">
          <mxGeometry width="50" height="50" relative="1" as="geometry">
            <mxPoint x="499" y="147" as="sourcePoint" />
            <mxPoint x="640" y="147" as="targetPoint" />
          </mxGeometry>
        </mxCell>
        <mxCell id="EOEwD_PGpH7pbu5A_fgL-66" value="" style="endArrow=open;html=1;rounded=0;exitX=0;exitY=1;exitDx=0;exitDy=0;dashed=1;endFill=0;" edge="1" parent="1" target="EOEwD_PGpH7pbu5A_fgL-58">
          <mxGeometry width="50" height="50" relative="1" as="geometry">
            <mxPoint x="641" y="166" as="sourcePoint" />
            <mxPoint x="506" y="147" as="targetPoint" />
          </mxGeometry>
        </mxCell>
        <mxCell id="EOEwD_PGpH7pbu5A_fgL-67" value="dados biométricos" style="text;html=1;align=center;verticalAlign=middle;resizable=0;points=[];autosize=1;strokeColor=none;fillColor=none;fontSize=10;fontStyle=1" vertex="1" parent="1">
          <mxGeometry x="519" y="114" width="100" height="30" as="geometry" />
        </mxCell>
        <mxCell id="EOEwD_PGpH7pbu5A_fgL-68" value="resultado da&lt;div style=&quot;font-size: 10px;&quot;&gt;autenticação&lt;/div&gt;" style="text;html=1;align=center;verticalAlign=middle;resizable=0;points=[];autosize=1;strokeColor=none;fillColor=none;fontSize=10;fontStyle=1" vertex="1" parent="1">
          <mxGeometry x="530" y="159" width="80" height="40" as="geometry" />
        </mxCell>
        <mxCell id="EOEwD_PGpH7pbu5A_fgL-69" value="" style="endArrow=none;dashed=1;html=1;rounded=0;" edge="1" parent="1" target="EOEwD_PGpH7pbu5A_fgL-70">
          <mxGeometry width="50" height="50" relative="1" as="geometry">
            <mxPoint x="646" y="460" as="sourcePoint" />
            <mxPoint x="646" y="6" as="targetPoint" />
          </mxGeometry>
        </mxCell>
        <mxCell id="EOEwD_PGpH7pbu5A_fgL-70" value="" style="rounded=0;whiteSpace=wrap;html=1;" vertex="1" parent="1">
          <mxGeometry x="641" y="147" width="10" height="19" as="geometry" />
        </mxCell>
        <mxCell id="EOEwD_PGpH7pbu5A_fgL-73" value="[se verdadeiro]" style="text;html=1;align=center;verticalAlign=middle;whiteSpace=wrap;rounded=0;fontSize=10;" vertex="1" parent="1">
          <mxGeometry x="-228" y="215" width="72" height="30" as="geometry" />
        </mxCell>
        <mxCell id="EOEwD_PGpH7pbu5A_fgL-84" value="UC-04&lt;div&gt;Recuperar Senha&lt;/div&gt;" style="strokeWidth=2;html=1;shape=mxgraph.flowchart.start_1;whiteSpace=wrap;" vertex="1" parent="1">
          <mxGeometry x="164" y="-224" width="134" height="83" as="geometry" />
        </mxCell>
        <mxCell id="EOEwD_PGpH7pbu5A_fgL-85" value="&lt;b&gt;:Interface&lt;/b&gt;" style="shape=umlLifeline;perimeter=lifelinePerimeter;whiteSpace=wrap;html=1;container=0;dropTarget=0;collapsible=0;recursiveResize=0;outlineConnect=0;portConstraint=eastwest;newEdgeStyle={&quot;edgeStyle&quot;:&quot;elbowEdgeStyle&quot;,&quot;elbow&quot;:&quot;vertical&quot;,&quot;curved&quot;:0,&quot;rounded&quot;:0};" vertex="1" parent="1">
          <mxGeometry x="-33" y="-98" width="104" height="556" as="geometry" />
        </mxCell>
        <mxCell id="EOEwD_PGpH7pbu5A_fgL-86" value="" style="html=1;points=[];perimeter=orthogonalPerimeter;outlineConnect=0;targetShapes=umlLifeline;portConstraint=eastwest;newEdgeStyle={&quot;edgeStyle&quot;:&quot;elbowEdgeStyle&quot;,&quot;elbow&quot;:&quot;vertical&quot;,&quot;curved&quot;:0,&quot;rounded&quot;:0};" vertex="1" parent="EOEwD_PGpH7pbu5A_fgL-85">
          <mxGeometry x="47" y="77" width="10" height="438" as="geometry" />
        </mxCell>
        <mxCell id="EOEwD_PGpH7pbu5A_fgL-90" value="" style="endArrow=classic;html=1;rounded=0;fontSize=12;startSize=8;endSize=8;curved=1;exitX=1.14;exitY=0.024;exitDx=0;exitDy=0;exitPerimeter=0;" edge="1" parent="1" source="EOEwD_PGpH7pbu5A_fgL-7" target="EOEwD_PGpH7pbu5A_fgL-86">
          <mxGeometry width="50" height="50" relative="1" as="geometry">
            <mxPoint x="14" y="59" as="sourcePoint" />
            <mxPoint x="64" y="9" as="targetPoint" />
          </mxGeometry>
        </mxCell>
        <mxCell id="EOEwD_PGpH7pbu5A_fgL-91" value="&lt;span style=&quot;font-size: 9px;&quot;&gt;entra na opção&lt;/span&gt;&lt;div style=&quot;font-size: 9px;&quot;&gt;&lt;span style=&quot;font-size: 9px;&quot;&gt;&quot;recuperar senha&quot; e insere&lt;/span&gt;&lt;/div&gt;&lt;div style=&quot;font-size: 9px;&quot;&gt;&lt;span style=&quot;font-size: 9px;&quot;&gt;email&lt;/span&gt;&lt;/div&gt;" style="edgeLabel;html=1;align=center;verticalAlign=middle;resizable=0;points=[];fontSize=9;" vertex="1" connectable="0" parent="EOEwD_PGpH7pbu5A_fgL-90">
          <mxGeometry x="-0.1633" y="1" relative="1" as="geometry">
            <mxPoint x="5" y="20" as="offset" />
          </mxGeometry>
        </mxCell>
        <mxCell id="EOEwD_PGpH7pbu5A_fgL-95" value="" style="endArrow=classic;html=1;rounded=0;fontSize=12;startSize=8;endSize=8;curved=1;" edge="1" parent="1">
          <mxGeometry width="50" height="50" relative="1" as="geometry">
            <mxPoint x="175" y="94.99999999999999" as="sourcePoint" />
            <mxPoint x="23" y="95" as="targetPoint" />
          </mxGeometry>
        </mxCell>
        <mxCell id="EOEwD_PGpH7pbu5A_fgL-96" value="coletaBiometria()" style="edgeLabel;html=1;align=center;verticalAlign=middle;resizable=0;points=[];fontSize=10;" vertex="1" connectable="0" parent="EOEwD_PGpH7pbu5A_fgL-95">
          <mxGeometry x="0.1266" y="-2" relative="1" as="geometry">
            <mxPoint x="9" y="-6" as="offset" />
          </mxGeometry>
        </mxCell>
        <mxCell id="EOEwD_PGpH7pbu5A_fgL-97" value="" style="endArrow=classic;html=1;rounded=0;fontSize=12;startSize=8;endSize=8;curved=1;" edge="1" parent="1">
          <mxGeometry width="50" height="50" relative="1" as="geometry">
            <mxPoint x="14" y="100" as="sourcePoint" />
            <mxPoint x="-126" y="100" as="targetPoint" />
          </mxGeometry>
        </mxCell>
        <mxCell id="EOEwD_PGpH7pbu5A_fgL-98" value="&lt;span style=&quot;font-size: 10px;&quot;&gt;realiza captura facial&lt;/span&gt;" style="edgeLabel;html=1;align=center;verticalAlign=middle;resizable=0;points=[];fontSize=12;" vertex="1" connectable="0" parent="EOEwD_PGpH7pbu5A_fgL-97">
          <mxGeometry x="0.0343" y="1" relative="1" as="geometry">
            <mxPoint y="-10" as="offset" />
          </mxGeometry>
        </mxCell>
        <mxCell id="EOEwD_PGpH7pbu5A_fgL-100" value="" style="endArrow=open;html=1;rounded=0;fontSize=12;startSize=8;endSize=8;curved=1;endFill=0;dashed=1;" edge="1" parent="1" target="EOEwD_PGpH7pbu5A_fgL-86">
          <mxGeometry width="50" height="50" relative="1" as="geometry">
            <mxPoint x="-126" y="111" as="sourcePoint" />
            <mxPoint x="-24" y="91" as="targetPoint" />
          </mxGeometry>
        </mxCell>
        <mxCell id="EOEwD_PGpH7pbu5A_fgL-101" value="&lt;font style=&quot;font-size: 10px;&quot;&gt;biometria facial&lt;/font&gt;" style="edgeLabel;html=1;align=center;verticalAlign=middle;resizable=0;points=[];fontSize=12;" vertex="1" connectable="0" parent="EOEwD_PGpH7pbu5A_fgL-100">
          <mxGeometry x="-0.1314" y="-1" relative="1" as="geometry">
            <mxPoint x="4" y="7" as="offset" />
          </mxGeometry>
        </mxCell>
        <mxCell id="EOEwD_PGpH7pbu5A_fgL-102" value="" style="endArrow=open;html=1;rounded=0;fontSize=12;startSize=8;endSize=8;curved=1;endFill=0;dashed=1;" edge="1" parent="1" target="EOEwD_PGpH7pbu5A_fgL-5">
          <mxGeometry width="50" height="50" relative="1" as="geometry">
            <mxPoint x="24" y="117" as="sourcePoint" />
            <mxPoint x="164" y="117" as="targetPoint" />
          </mxGeometry>
        </mxCell>
        <mxCell id="EOEwD_PGpH7pbu5A_fgL-103" value="&lt;font style=&quot;font-size: 10px;&quot;&gt;dados biométricos&lt;/font&gt;" style="edgeLabel;html=1;align=center;verticalAlign=middle;resizable=0;points=[];fontSize=12;" vertex="1" connectable="0" parent="EOEwD_PGpH7pbu5A_fgL-102">
          <mxGeometry x="-0.1314" y="-1" relative="1" as="geometry">
            <mxPoint x="4" y="7" as="offset" />
          </mxGeometry>
        </mxCell>
        <mxCell id="EOEwD_PGpH7pbu5A_fgL-104" value="" style="endArrow=open;html=1;rounded=0;fontSize=12;startSize=8;endSize=8;curved=1;dashed=1;endFill=0;" edge="1" parent="1">
          <mxGeometry width="50" height="50" relative="1" as="geometry">
            <mxPoint x="-127" y="269" as="sourcePoint" />
            <mxPoint x="13" y="269" as="targetPoint" />
          </mxGeometry>
        </mxCell>
        <mxCell id="EOEwD_PGpH7pbu5A_fgL-105" value="insere nova senha" style="edgeLabel;html=1;align=center;verticalAlign=middle;resizable=0;points=[];fontSize=10;" vertex="1" connectable="0" parent="EOEwD_PGpH7pbu5A_fgL-104">
          <mxGeometry x="-0.0785" relative="1" as="geometry">
            <mxPoint x="4" y="9" as="offset" />
          </mxGeometry>
        </mxCell>
        <mxCell id="EOEwD_PGpH7pbu5A_fgL-106" value="" style="endArrow=open;html=1;rounded=0;fontSize=12;startSize=8;endSize=8;curved=1;dashed=1;endFill=0;" edge="1" parent="1">
          <mxGeometry width="50" height="50" relative="1" as="geometry">
            <mxPoint x="14" y="344" as="sourcePoint" />
            <mxPoint x="-127" y="344" as="targetPoint" />
          </mxGeometry>
        </mxCell>
        <mxCell id="EOEwD_PGpH7pbu5A_fgL-107" value="&lt;font style=&quot;font-size: 10px;&quot;&gt;Mensagem de Confirmação&lt;/font&gt;" style="edgeLabel;html=1;align=center;verticalAlign=middle;resizable=0;points=[];fontSize=12;" vertex="1" connectable="0" parent="EOEwD_PGpH7pbu5A_fgL-106">
          <mxGeometry x="0.1296" y="-2" relative="1" as="geometry">
            <mxPoint x="10" y="-12" as="offset" />
          </mxGeometry>
        </mxCell>
        <mxCell id="EOEwD_PGpH7pbu5A_fgL-108" value="" style="endArrow=open;html=1;rounded=0;fontSize=12;startSize=8;endSize=8;curved=1;dashed=1;endFill=0;" edge="1" parent="1">
          <mxGeometry width="50" height="50" relative="1" as="geometry">
            <mxPoint x="14" y="417" as="sourcePoint" />
            <mxPoint x="-127" y="417" as="targetPoint" />
          </mxGeometry>
        </mxCell>
        <mxCell id="EOEwD_PGpH7pbu5A_fgL-109" value="&lt;font style=&quot;font-size: 10px;&quot;&gt;Mensagem de Erro&lt;/font&gt;" style="edgeLabel;html=1;align=center;verticalAlign=middle;resizable=0;points=[];fontSize=12;" vertex="1" connectable="0" parent="EOEwD_PGpH7pbu5A_fgL-108">
          <mxGeometry x="0.1296" y="-2" relative="1" as="geometry">
            <mxPoint x="9" y="-9" as="offset" />
          </mxGeometry>
        </mxCell>
        <mxCell id="EOEwD_PGpH7pbu5A_fgL-74" value="[se falso]" style="text;html=1;align=center;verticalAlign=middle;whiteSpace=wrap;rounded=0;fontSize=10;" vertex="1" parent="1">
          <mxGeometry x="-242" y="356" width="72" height="30" as="geometry" />
        </mxCell>
      </root>
    </mxGraphModel>
  </diagram>
</mxfile>
